<mxfile host="65bd71144e">
    <diagram name="Page-1" id="OkxXmH8ndBm1RO2pglTv">
        <mxGraphModel dx="367" dy="1136" grid="1" gridSize="10" guides="1" tooltips="1" connect="1" arrows="0" fold="1" page="1" pageScale="1" pageWidth="1100" pageHeight="850" math="0" shadow="0">
            <root>
                <mxCell id="0"/>
                <mxCell id="1" parent="0"/>
                <mxCell id="DqJ-K6Y3_9FV7fpz-t7j-108" value="User" style="shape=umlActor;verticalLabelPosition=bottom;verticalAlign=top;html=1;" parent="1" vertex="1">
                    <mxGeometry x="1240" y="90" width="30" height="60" as="geometry"/>
                </mxCell>
                <mxCell id="DqJ-K6Y3_9FV7fpz-t7j-109" value="Οθόνη&lt;br&gt;User Details" style="shape=umlBoundary;whiteSpace=wrap;html=1;" parent="1" vertex="1">
                    <mxGeometry x="1420" y="60" width="100" height="80" as="geometry"/>
                </mxCell>
                <mxCell id="DqJ-K6Y3_9FV7fpz-t7j-110" value="" style="endArrow=classic;html=1;rounded=0;exitX=0.5;exitY=0.5;exitDx=0;exitDy=0;exitPerimeter=0;entryX=-0.025;entryY=0.496;entryDx=0;entryDy=0;entryPerimeter=0;" parent="1" source="DqJ-K6Y3_9FV7fpz-t7j-108" target="DqJ-K6Y3_9FV7fpz-t7j-109" edge="1">
                    <mxGeometry width="50" height="50" relative="1" as="geometry">
                        <mxPoint x="1340" y="200" as="sourcePoint"/>
                        <mxPoint x="1390" y="150" as="targetPoint"/>
                    </mxGeometry>
                </mxCell>
                <mxCell id="DqJ-K6Y3_9FV7fpz-t7j-111" value="Επιλέγει &quot;Report&quot;" style="edgeLabel;html=1;align=center;verticalAlign=middle;resizable=0;points=[];" parent="DqJ-K6Y3_9FV7fpz-t7j-110" connectable="0" vertex="1">
                    <mxGeometry x="0.0097" relative="1" as="geometry">
                        <mxPoint as="offset"/>
                    </mxGeometry>
                </mxCell>
                <mxCell id="DqJ-K6Y3_9FV7fpz-t7j-112" value="Εμφανίζει&lt;br&gt;φόρμα αναφοράς" style="ellipse;shape=umlControl;whiteSpace=wrap;html=1;" parent="1" vertex="1">
                    <mxGeometry x="1600" y="140" width="70" height="80" as="geometry"/>
                </mxCell>
                <mxCell id="DqJ-K6Y3_9FV7fpz-t7j-113" value="" style="endArrow=classic;html=1;rounded=0;exitX=1.022;exitY=0.615;exitDx=0;exitDy=0;exitPerimeter=0;entryX=0.073;entryY=0.351;entryDx=0;entryDy=0;entryPerimeter=0;" parent="1" source="DqJ-K6Y3_9FV7fpz-t7j-109" target="DqJ-K6Y3_9FV7fpz-t7j-112" edge="1">
                    <mxGeometry width="50" height="50" relative="1" as="geometry">
                        <mxPoint x="1530" y="190" as="sourcePoint"/>
                        <mxPoint x="1580" y="140" as="targetPoint"/>
                    </mxGeometry>
                </mxCell>
                <mxCell id="DqJ-K6Y3_9FV7fpz-t7j-114" value="" style="endArrow=classic;html=1;rounded=0;entryX=0.936;entryY=0.213;entryDx=0;entryDy=0;entryPerimeter=0;" parent="1" source="DqJ-K6Y3_9FV7fpz-t7j-112" target="DqJ-K6Y3_9FV7fpz-t7j-115" edge="1">
                    <mxGeometry width="50" height="50" relative="1" as="geometry">
                        <mxPoint x="1510" y="200" as="sourcePoint"/>
                        <mxPoint x="1530" y="260" as="targetPoint"/>
                    </mxGeometry>
                </mxCell>
                <mxCell id="DqJ-K6Y3_9FV7fpz-t7j-115" value="Οθόνη&lt;br&gt;Report User" style="shape=umlBoundary;whiteSpace=wrap;html=1;" parent="1" vertex="1">
                    <mxGeometry x="1430" y="240" width="100" height="80" as="geometry"/>
                </mxCell>
                <mxCell id="DqJ-K6Y3_9FV7fpz-t7j-116" value="" style="endArrow=classic;html=1;rounded=0;exitX=0.5;exitY=0.5;exitDx=0;exitDy=0;exitPerimeter=0;entryX=0.005;entryY=0.497;entryDx=0;entryDy=0;entryPerimeter=0;" parent="1" source="DqJ-K6Y3_9FV7fpz-t7j-108" target="DqJ-K6Y3_9FV7fpz-t7j-115" edge="1">
                    <mxGeometry width="50" height="50" relative="1" as="geometry">
                        <mxPoint x="1450" y="250" as="sourcePoint"/>
                        <mxPoint x="1500" y="200" as="targetPoint"/>
                    </mxGeometry>
                </mxCell>
                <mxCell id="DqJ-K6Y3_9FV7fpz-t7j-117" value="Επιλέγει λόγο αναφοράς και προσθέτει περιγραφή" style="edgeLabel;html=1;align=center;verticalAlign=middle;resizable=0;points=[];" parent="DqJ-K6Y3_9FV7fpz-t7j-116" connectable="0" vertex="1">
                    <mxGeometry x="-0.0917" relative="1" as="geometry">
                        <mxPoint x="15" y="7" as="offset"/>
                    </mxGeometry>
                </mxCell>
                <mxCell id="DqJ-K6Y3_9FV7fpz-t7j-118" value="" style="endArrow=classic;html=1;rounded=0;exitX=0.95;exitY=0.746;exitDx=0;exitDy=0;exitPerimeter=0;entryX=0.031;entryY=0.373;entryDx=0;entryDy=0;entryPerimeter=0;" parent="1" source="DqJ-K6Y3_9FV7fpz-t7j-115" target="DqJ-K6Y3_9FV7fpz-t7j-119" edge="1">
                    <mxGeometry width="50" height="50" relative="1" as="geometry">
                        <mxPoint x="1520" y="380" as="sourcePoint"/>
                        <mxPoint x="1540" y="337" as="targetPoint"/>
                    </mxGeometry>
                </mxCell>
                <mxCell id="DqJ-K6Y3_9FV7fpz-t7j-119" value="Εμφανίζει&lt;br&gt;διάλογο" style="ellipse;shape=umlControl;whiteSpace=wrap;html=1;" parent="1" vertex="1">
                    <mxGeometry x="1600" y="310" width="70" height="80" as="geometry"/>
                </mxCell>
                <mxCell id="DqJ-K6Y3_9FV7fpz-t7j-120" value="" style="endArrow=classic;html=1;rounded=0;exitX=0.098;exitY=0.783;exitDx=0;exitDy=0;exitPerimeter=0;entryX=0.974;entryY=0.354;entryDx=0;entryDy=0;entryPerimeter=0;" parent="1" source="DqJ-K6Y3_9FV7fpz-t7j-119" target="DqJ-K6Y3_9FV7fpz-t7j-122" edge="1">
                    <mxGeometry width="50" height="50" relative="1" as="geometry">
                        <mxPoint x="1510" y="380" as="sourcePoint"/>
                        <mxPoint x="1550" y="420" as="targetPoint"/>
                    </mxGeometry>
                </mxCell>
                <mxCell id="DqJ-K6Y3_9FV7fpz-t7j-122" value="Διάλογος&lt;br&gt;επιβεβαίωσης&lt;br&gt;αναφοράς" style="shape=umlBoundary;whiteSpace=wrap;html=1;" parent="1" vertex="1">
                    <mxGeometry x="1430" y="410" width="100" height="80" as="geometry"/>
                </mxCell>
                <mxCell id="DqJ-K6Y3_9FV7fpz-t7j-123" value="" style="endArrow=classic;html=1;rounded=0;exitX=1.003;exitY=0.608;exitDx=0;exitDy=0;exitPerimeter=0;entryX=0;entryY=0.616;entryDx=0;entryDy=0;entryPerimeter=0;" parent="1" source="DqJ-K6Y3_9FV7fpz-t7j-122" target="DqJ-K6Y3_9FV7fpz-t7j-124" edge="1">
                    <mxGeometry width="50" height="50" relative="1" as="geometry">
                        <mxPoint x="1430" y="400" as="sourcePoint"/>
                        <mxPoint x="1640" y="470" as="targetPoint"/>
                    </mxGeometry>
                </mxCell>
                <mxCell id="DqJ-K6Y3_9FV7fpz-t7j-124" value="Επιβεβαίωση;" style="ellipse;shape=umlControl;whiteSpace=wrap;html=1;" parent="1" vertex="1">
                    <mxGeometry x="1630" y="440" width="70" height="80" as="geometry"/>
                </mxCell>
                <mxCell id="DqJ-K6Y3_9FV7fpz-t7j-125" value="" style="endArrow=classic;html=1;rounded=0;exitX=0.987;exitY=0.356;exitDx=0;exitDy=0;exitPerimeter=0;entryX=0.007;entryY=0.618;entryDx=0;entryDy=0;entryPerimeter=0;" parent="1" source="DqJ-K6Y3_9FV7fpz-t7j-124" target="DqJ-K6Y3_9FV7fpz-t7j-129" edge="1">
                    <mxGeometry width="50" height="50" relative="1" as="geometry">
                        <mxPoint x="1540" y="590" as="sourcePoint"/>
                        <mxPoint x="1690" y="590" as="targetPoint"/>
                    </mxGeometry>
                </mxCell>
                <mxCell id="DqJ-K6Y3_9FV7fpz-t7j-127" value="ΝΑΙ" style="edgeLabel;html=1;align=center;verticalAlign=middle;resizable=0;points=[];" parent="DqJ-K6Y3_9FV7fpz-t7j-125" connectable="0" vertex="1">
                    <mxGeometry x="-0.071" relative="1" as="geometry">
                        <mxPoint as="offset"/>
                    </mxGeometry>
                </mxCell>
                <mxCell id="DqJ-K6Y3_9FV7fpz-t7j-129" value="Δημιουργεί&lt;br&gt;αναφορά" style="ellipse;shape=umlControl;whiteSpace=wrap;html=1;" parent="1" vertex="1">
                    <mxGeometry x="1805" y="360" width="70" height="80" as="geometry"/>
                </mxCell>
                <mxCell id="DqJ-K6Y3_9FV7fpz-t7j-131" value="Αναφορά" style="ellipse;shape=umlEntity;whiteSpace=wrap;html=1;" parent="1" vertex="1">
                    <mxGeometry x="1970" y="260" width="80" height="80" as="geometry"/>
                </mxCell>
                <mxCell id="DqJ-K6Y3_9FV7fpz-t7j-132" value="" style="endArrow=classic;html=1;rounded=0;exitX=0.958;exitY=0.407;exitDx=0;exitDy=0;exitPerimeter=0;entryX=0;entryY=0.5;entryDx=0;entryDy=0;" parent="1" source="DqJ-K6Y3_9FV7fpz-t7j-129" target="DqJ-K6Y3_9FV7fpz-t7j-131" edge="1">
                    <mxGeometry width="50" height="50" relative="1" as="geometry">
                        <mxPoint x="1650" y="620" as="sourcePoint"/>
                        <mxPoint x="1700" y="570" as="targetPoint"/>
                    </mxGeometry>
                </mxCell>
                <mxCell id="DqJ-K6Y3_9FV7fpz-t7j-133" value="" style="endArrow=classic;html=1;rounded=0;exitX=0.961;exitY=0.805;exitDx=0;exitDy=0;exitPerimeter=0;entryX=0.196;entryY=0.258;entryDx=0;entryDy=0;entryPerimeter=0;" parent="1" source="DqJ-K6Y3_9FV7fpz-t7j-129" target="DqJ-K6Y3_9FV7fpz-t7j-134" edge="1">
                    <mxGeometry width="50" height="50" relative="1" as="geometry">
                        <mxPoint x="1610" y="730" as="sourcePoint"/>
                        <mxPoint x="1730" y="710" as="targetPoint"/>
                    </mxGeometry>
                </mxCell>
                <mxCell id="DqJ-K6Y3_9FV7fpz-t7j-134" value="Καταχωρεί&lt;br&gt;αναφορά" style="ellipse;shape=umlControl;whiteSpace=wrap;html=1;" parent="1" vertex="1">
                    <mxGeometry x="1960" y="470" width="70" height="80" as="geometry"/>
                </mxCell>
                <mxCell id="DqJ-K6Y3_9FV7fpz-t7j-135" value="Λίστα αναμονής" style="ellipse;shape=umlEntity;whiteSpace=wrap;html=1;" parent="1" vertex="1">
                    <mxGeometry x="2090" y="425" width="80" height="80" as="geometry"/>
                </mxCell>
                <mxCell id="DqJ-K6Y3_9FV7fpz-t7j-136" value="" style="endArrow=classic;html=1;rounded=0;exitX=1.003;exitY=0.468;exitDx=0;exitDy=0;exitPerimeter=0;entryX=0;entryY=0.5;entryDx=0;entryDy=0;" parent="1" source="DqJ-K6Y3_9FV7fpz-t7j-134" target="DqJ-K6Y3_9FV7fpz-t7j-135" edge="1">
                    <mxGeometry width="50" height="50" relative="1" as="geometry">
                        <mxPoint x="1760" y="810" as="sourcePoint"/>
                        <mxPoint x="1850" y="820" as="targetPoint"/>
                    </mxGeometry>
                </mxCell>
                <mxCell id="DqJ-K6Y3_9FV7fpz-t7j-137" value="Αναθέτει&lt;br&gt;ποινή" style="ellipse;shape=umlControl;whiteSpace=wrap;html=1;" parent="1" vertex="1">
                    <mxGeometry x="2040" y="570" width="70" height="80" as="geometry"/>
                </mxCell>
                <mxCell id="DqJ-K6Y3_9FV7fpz-t7j-138" value="" style="endArrow=classic;html=1;rounded=0;exitX=0.879;exitY=0.871;exitDx=0;exitDy=0;exitPerimeter=0;entryX=0.406;entryY=0.092;entryDx=0;entryDy=0;entryPerimeter=0;" parent="1" source="DqJ-K6Y3_9FV7fpz-t7j-134" target="DqJ-K6Y3_9FV7fpz-t7j-137" edge="1">
                    <mxGeometry width="50" height="50" relative="1" as="geometry">
                        <mxPoint x="1690" y="850" as="sourcePoint"/>
                        <mxPoint x="1740" y="800" as="targetPoint"/>
                    </mxGeometry>
                </mxCell>
                <mxCell id="DqJ-K6Y3_9FV7fpz-t7j-139" value="Παραλήπτης" style="ellipse;shape=umlEntity;whiteSpace=wrap;html=1;" parent="1" vertex="1">
                    <mxGeometry x="1820" y="610" width="80" height="80" as="geometry"/>
                </mxCell>
                <mxCell id="DqJ-K6Y3_9FV7fpz-t7j-140" value="" style="endArrow=classic;html=1;rounded=0;exitX=-0.021;exitY=0.616;exitDx=0;exitDy=0;exitPerimeter=0;entryX=1;entryY=0.5;entryDx=0;entryDy=0;" parent="1" source="DqJ-K6Y3_9FV7fpz-t7j-137" target="DqJ-K6Y3_9FV7fpz-t7j-139" edge="1">
                    <mxGeometry width="50" height="50" relative="1" as="geometry">
                        <mxPoint x="1670" y="800" as="sourcePoint"/>
                        <mxPoint x="1720" y="750" as="targetPoint"/>
                    </mxGeometry>
                </mxCell>
            </root>
        </mxGraphModel>
    </diagram>
</mxfile>
